<svg xmlns="http://www.w3.org/2000/svg" xmlns:xlink="http://www.w3.org/1999/xlink" viewBox="0 0 73.21 115.91"><defs><style>.cls-1{isolation:isolate;}.cls-2{fill:url(#Sfumatura_senza_nome_168);}.cls-3{fill:url(#Sfumatura_senza_nome_75);}.cls-4{opacity:0.43;fill:url(#Sfumatura_senza_nome_202);}.cls-5{fill:url(#Sfumatura_senza_nome_27);}.cls-6{fill:url(#Sfumatura_senza_nome_45);}.cls-7{fill:url(#Sfumatura_senza_nome_66);}.cls-8{fill:url(#Sfumatura_senza_nome_110);}.cls-9{fill:url(#Sfumatura_senza_nome_129);}.cls-10{mix-blend-mode:color-burn;fill:url(#Sfumatura_senza_nome_81);}.cls-11{opacity:0.25;fill:url(#Sfumatura_senza_nome_194);}.cls-12{fill:url(#Sfumatura_senza_nome_203);}.cls-13{opacity:0.17;mix-blend-mode:soft-light;fill:url(#Sfumatura_senza_nome_187);}</style><linearGradient id="Sfumatura_senza_nome_168" x1="97.29" y1="-61.4" x2="155.45" y2="-61.4" gradientTransform="translate(-65.02 156.57) rotate(-18.42)" gradientUnits="userSpaceOnUse"><stop offset="0" stop-color="#262262"/><stop offset="0.5" stop-color="#662d91"/><stop offset="0.67" stop-color="#642c8e"/><stop offset="0.8" stop-color="#5c2a85"/><stop offset="0.91" stop-color="#4e2675"/><stop offset="1" stop-color="#3e2262"/></linearGradient><linearGradient id="Sfumatura_senza_nome_75" x1="97.29" y1="-61.4" x2="155.45" y2="-61.4" gradientTransform="translate(-65.02 156.57) rotate(-18.42)" gradientUnits="userSpaceOnUse"><stop offset="0" stop-color="#17224d"/><stop offset="0.1" stop-color="#30235b" stop-opacity="0.79"/><stop offset="0.32" stop-color="#5b2572" stop-opacity="0.45"/><stop offset="0.54" stop-color="#7a2682" stop-opacity="0.2"/><stop offset="0.76" stop-color="#8c278c" stop-opacity="0.05"/><stop offset="1" stop-color="#92278f" stop-opacity="0"/></linearGradient><linearGradient id="Sfumatura_senza_nome_202" x1="97.29" y1="-60.39" x2="145.55" y2="-60.39" gradientTransform="translate(-65.02 156.57) rotate(-18.42)" gradientUnits="userSpaceOnUse"><stop offset="0" stop-color="#92278f" stop-opacity="0"/><stop offset="0.05" stop-color="#942a8f" stop-opacity="0.16"/><stop offset="0.13" stop-color="#982d90" stop-opacity="0.38"/><stop offset="0.22" stop-color="#9b3090" stop-opacity="0.58"/><stop offset="0.32" stop-color="#9d3390" stop-opacity="0.73"/><stop offset="0.43" stop-color="#9f3591" stop-opacity="0.85"/><stop offset="0.55" stop-color="#a03691" stop-opacity="0.94"/><stop offset="0.71" stop-color="#a13791" stop-opacity="0.99"/><stop offset="1" stop-color="#a13791"/></linearGradient><linearGradient id="Sfumatura_senza_nome_27" x1="92.06" y1="-80.62" x2="169.58" y2="-80.62" gradientTransform="translate(-65.02 156.57) rotate(-18.42)" gradientUnits="userSpaceOnUse"><stop offset="0" stop-color="#1c75bc"/><stop offset="0.5" stop-color="#00aeef"/><stop offset="1" stop-color="#4fd5df"/></linearGradient><linearGradient id="Sfumatura_senza_nome_45" x1="120.44" y1="-1.07" x2="120.44" y2="-32.02" gradientTransform="translate(-65.02 156.57) rotate(-18.42)" gradientUnits="userSpaceOnUse"><stop offset="0" stop-color="#da1c5c"/><stop offset="0.5" stop-color="#9e1f63"/><stop offset="1" stop-color="#9e1f63"/></linearGradient><linearGradient id="Sfumatura_senza_nome_66" x1="120.6" y1="-1.07" x2="120.6" y2="-32.02" gradientTransform="translate(-65.02 156.57) rotate(-18.42)" gradientUnits="userSpaceOnUse"><stop offset="0" stop-color="#da1c5c"/><stop offset="1" stop-color="#351840"/></linearGradient><linearGradient id="Sfumatura_senza_nome_110" x1="107.98" y1="-35.5" x2="162.56" y2="-35.5" gradientTransform="translate(-65.02 156.57) rotate(-18.42)" gradientUnits="userSpaceOnUse"><stop offset="0" stop-color="#ee2a7b"/><stop offset="0.5" stop-color="#da1c5c"/><stop offset="1" stop-color="#9e1f63"/></linearGradient><linearGradient id="Sfumatura_senza_nome_129" x1="107.98" y1="-35.5" x2="162.64" y2="-35.5" gradientTransform="translate(-65.02 156.57) rotate(-18.42)" gradientUnits="userSpaceOnUse"><stop offset="0" stop-color="#ee2a7b" stop-opacity="0"/><stop offset="0.02" stop-color="#ee2b7b" stop-opacity="0.09"/><stop offset="0.07" stop-color="#ef2d7a" stop-opacity="0.3"/><stop offset="0.12" stop-color="#f02f79" stop-opacity="0.49"/><stop offset="0.18" stop-color="#f13078" stop-opacity="0.65"/><stop offset="0.23" stop-color="#f13278" stop-opacity="0.77"/><stop offset="0.29" stop-color="#f13378" stop-opacity="0.87"/><stop offset="0.35" stop-color="#f23377" stop-opacity="0.94"/><stop offset="0.42" stop-color="#f23477" stop-opacity="0.99"/><stop offset="0.5" stop-color="#f23477"/><stop offset="0.56" stop-color="#f13477" stop-opacity="0.98"/><stop offset="0.63" stop-color="#ec3376" stop-opacity="0.93"/><stop offset="0.69" stop-color="#e53174" stop-opacity="0.84"/><stop offset="0.76" stop-color="#db2e71" stop-opacity="0.72"/><stop offset="0.82" stop-color="#ce2b6e" stop-opacity="0.57"/><stop offset="0.89" stop-color="#bd276a" stop-opacity="0.37"/><stop offset="0.96" stop-color="#ab2266" stop-opacity="0.15"/><stop offset="1" stop-color="#9e1f63" stop-opacity="0"/></linearGradient><linearGradient id="Sfumatura_senza_nome_81" x1="92.06" y1="-80.62" x2="168.63" y2="-80.62" gradientTransform="translate(-65.02 156.57) rotate(-18.42)" gradientUnits="userSpaceOnUse"><stop offset="0" stop-color="#d9e8bc"/><stop offset="1" stop-color="#4fd5df"/></linearGradient><linearGradient id="Sfumatura_senza_nome_194" x1="112.64" y1="-47.31" x2="153.3" y2="-117.72" gradientTransform="translate(-65.02 156.57) rotate(-18.42)" gradientUnits="userSpaceOnUse"><stop offset="0" stop-color="#1c75bc" stop-opacity="0"/><stop offset="0.06" stop-color="#458ec5" stop-opacity="0.18"/><stop offset="0.15" stop-color="#7db0d2" stop-opacity="0.43"/><stop offset="0.24" stop-color="#abccdc" stop-opacity="0.63"/><stop offset="0.32" stop-color="#d0e2e4" stop-opacity="0.79"/><stop offset="0.39" stop-color="#eaf2ea" stop-opacity="0.91"/><stop offset="0.45" stop-color="#f9fcee" stop-opacity="0.98"/><stop offset="0.5" stop-color="#ffffef"/><stop offset="0.59" stop-color="#fdffef" stop-opacity="0.99"/><stop offset="0.66" stop-color="#f6fdee" stop-opacity="0.95"/><stop offset="0.72" stop-color="#ecfaed" stop-opacity="0.89"/><stop offset="0.77" stop-color="#dcf7ec" stop-opacity="0.8"/><stop offset="0.82" stop-color="#c8f2ea" stop-opacity="0.69"/><stop offset="0.87" stop-color="#afece8" stop-opacity="0.55"/><stop offset="0.92" stop-color="#92e5e5" stop-opacity="0.38"/><stop offset="0.96" stop-color="#71dde2" stop-opacity="0.19"/><stop offset="1" stop-color="#4fd5df" stop-opacity="0"/></linearGradient><linearGradient id="Sfumatura_senza_nome_203" x1="107.98" y1="-35.5" x2="159.78" y2="-35.5" gradientTransform="translate(-65.02 156.57) rotate(-18.42)" gradientUnits="userSpaceOnUse"><stop offset="0" stop-color="#ee2a7b" stop-opacity="0"/><stop offset="0.25" stop-color="#d32673" stop-opacity="0.34"/><stop offset="0.49" stop-color="#bc236c" stop-opacity="0.62"/><stop offset="0.7" stop-color="#ac2167" stop-opacity="0.83"/><stop offset="0.88" stop-color="#a21f64" stop-opacity="0.95"/><stop offset="1" stop-color="#9e1f63"/></linearGradient><linearGradient id="Sfumatura_senza_nome_187" x1="110.06" y1="-35.5" x2="162.64" y2="-35.5" gradientTransform="translate(-65.02 156.57) rotate(-18.42)" gradientUnits="userSpaceOnUse"><stop offset="0" stop-color="#ee2a7b" stop-opacity="0"/><stop offset="0.03" stop-color="#f0478d" stop-opacity="0.14"/><stop offset="0.08" stop-color="#f472a8" stop-opacity="0.34"/><stop offset="0.13" stop-color="#f798bf" stop-opacity="0.51"/><stop offset="0.18" stop-color="#f9b8d3" stop-opacity="0.66"/><stop offset="0.24" stop-color="#fbd1e3" stop-opacity="0.79"/><stop offset="0.3" stop-color="#fde6ef" stop-opacity="0.88"/><stop offset="0.36" stop-color="#fef4f8" stop-opacity="0.95"/><stop offset="0.42" stop-color="#fffcfd" stop-opacity="0.99"/><stop offset="0.5" stop-color="#fff"/><stop offset="0.56" stop-color="#fdfbfc" stop-opacity="0.98"/><stop offset="0.62" stop-color="#f9f0f5" stop-opacity="0.93"/><stop offset="0.69" stop-color="#f1dee8" stop-opacity="0.85"/><stop offset="0.75" stop-color="#e5c4d6" stop-opacity="0.74"/><stop offset="0.82" stop-color="#d7a3bf" stop-opacity="0.59"/><stop offset="0.88" stop-color="#c57aa2" stop-opacity="0.41"/><stop offset="0.95" stop-color="#b14b82" stop-opacity="0.2"/><stop offset="1" stop-color="#9e1f63" stop-opacity="0"/></linearGradient></defs><title>Asset 1framephobia</title><g class="cls-1"><g id="Layer_2" data-name="Layer 2"><g id="Layer_1-2" data-name="Layer 1"><path class="cls-2" d="M11.43,55s6.27,3.17,36.11-3.88c6.67-1.58,11.09-2.52,15.26-1.89,0,0,3.7,3.86-4.55,7.41s-19.78,12-19.78,12S21.81,73,20.25,72.89s-8.39.72-12.18-5.37S11.43,55,11.43,55Z"/><path class="cls-3" d="M11.43,55s6.27,3.19,36.11-3.88c6.63-1.57,11.09-2.52,15.26-1.89,0,0,3.7,3.86-4.55,7.41s-19.78,12-19.78,12S21.81,73,20.25,72.89s-8.39.72-12.18-5.37S11.43,55,11.43,55Z"/><path class="cls-4" d="M30,64.35c-17.7,4.46-17.17.28-17.17.28s-2-3.19-3.94-6.61c-1.61,2.42-3,6-.85,9.49,3.79,6.09,10.62,5.25,12.18,5.37s18.22-4.15,18.22-4.15A147.18,147.18,0,0,1,55.54,58C49.15,59.31,40.11,61.82,30,64.35Z"/><path class="cls-5" d="M60.55,0S74.89,16.19,46.44,37.31C15.93,60,8,73.13,20.57,72.87c0,0-17.58,4.32-20.31-12.51-1.61-9.92,4.9-15.87,13-22.6C13.3,37.76,41.49,17.64,60.55,0Z"/><path class="cls-6" d="M45.64,86S36,102.45,53.75,115.56a.19.19,0,0,1-.17.34,72.24,72.24,0,0,1-11-4.94C31.49,104.8,40.05,92.05,45.64,86Z"/><path class="cls-7" d="M45.64,86S36,102.45,53.75,115.56a.19.19,0,0,1-.17.34c-2.82-.92-9.45-3.43-12.24-6.06C32.09,101.15,40.05,92.05,45.64,86Z"/><path class="cls-8" d="M73.19,57.89c-.6-7.74-11.13-8.71-11.13-8.71,6.33,3.47-13.19,7.63-27.46,23.6-10.12,11.33-6.09,22.93-6.09,22.93l0,0C31.7,106.33,42.6,111,42.6,111,25.11,85.77,74.24,72.15,73.19,57.89Z"/><path class="cls-9" d="M73.19,57.89c-.29-7.84-11.13-8.71-11.13-8.71,6.33,3.47-13.19,7.63-27.46,23.6-10.12,11.33-6.09,22.93-6.09,22.93l0,0C31.7,106.33,42.6,111,42.6,111,25.11,85.77,73,72.71,73.19,57.89Z"/><path class="cls-10" d="M30.25,35.27C63.11,11.82,60.55,0,60.55,0,43.69,16.07,13.3,37.76,13.3,37.76c-8.48,7-14.65,12.68-13,22.6C3,77.2,20.57,72.87,20.57,72.87.11,76.72-3.7,59.49,30.25,35.27Z"/><path class="cls-11" d="M60.55,0h0s2.56,11.82-30.3,35.27c-26,18.53-29.84,33-21.07,37a19.91,19.91,0,0,0,8.05,1.05,31.86,31.86,0,0,0,3.34-.45C8,73.13,15.93,60,46.44,37.31,74.89,16.19,60.55,0,60.55,0Z"/><path class="cls-12" d="M65.5,59.73c5.83-4.3,2.84-7.91,2.54-8.24a15.32,15.32,0,0,0-6-2.31c6.33,3.47-13.19,7.63-27.46,23.6-10.12,11.33-6.09,22.93-6.09,22.93l0,0C31.7,106.33,42.6,111,42.6,111,10.29,92.06,59.18,64.39,65.5,59.73Z"/><path class="cls-13" d="M62.06,49.18a15.32,15.32,0,0,1,6,2.31c.3.33,3.29,3.94-2.54,8.24-6.32,4.66-56,31.39-22.9,51.23C25.11,85.77,73,72.71,73.19,57.89,72.89,50.05,62.06,49.18,62.06,49.18Z"/></g></g></g></svg>